<svg width="586" height="586" viewBox="0 0 586 586" fill="none" xmlns="http://www.w3.org/2000/svg">
<path d="M117.228 49.8087C120.805 45.546 122.583 40.0592 122.187 34.5088C121.791 28.9583 119.251 23.7796 115.106 20.068C110.96 16.3564 105.533 14.403 99.9724 14.621C94.4121 14.839 89.1546 17.2112 85.3121 21.236C50.2096 60.3877 26.9447 108.701 18.2234 160.557C17.4166 166.101 18.8137 171.741 22.1151 176.269C25.4166 180.796 30.3598 183.85 35.8858 184.776C41.4117 185.703 47.0808 184.428 51.6784 181.226C56.276 178.023 59.4364 173.147 60.4824 167.643C67.858 123.784 87.5364 82.9209 117.228 49.8087ZM500.588 21.236C498.717 19.1198 496.446 17.3943 493.906 16.1587C491.366 14.9232 488.607 14.2021 485.787 14.0367C482.967 13.8714 480.142 14.2652 477.475 15.1954C474.808 16.1257 472.351 17.574 470.246 19.4571C468.141 21.3402 466.428 23.621 465.208 26.1683C463.987 28.7155 463.282 31.4789 463.133 34.2997C462.984 37.1204 463.394 39.9427 464.34 42.6043C465.286 45.266 466.748 47.7144 468.644 49.8087C498.344 82.9184 518.032 123.781 525.418 167.643C526.357 173.25 529.486 178.255 534.116 181.556C536.408 183.19 539 184.357 541.743 184.99C544.487 185.622 547.328 185.709 550.104 185.243C552.881 184.778 555.539 183.77 557.926 182.278C560.313 180.786 562.383 178.838 564.018 176.545C565.652 174.253 566.819 171.661 567.452 168.918C568.084 166.174 568.17 163.333 567.705 160.557C558.966 108.696 535.681 60.3818 500.559 21.236H500.588Z" fill="#EDDF66"/>
<path fill-rule="evenodd" clip-rule="evenodd" d="M292.95 14.0928C241.799 14.0928 192.743 34.4125 156.573 70.5819C120.404 106.751 100.084 155.807 100.084 206.959V228.388C100.172 286.653 78.592 342.87 39.5386 386.11C37.1933 388.711 35.5215 391.848 34.6696 395.246C33.8177 398.643 33.8116 402.198 34.6518 405.598C35.4921 408.999 37.1531 412.141 39.4894 414.751C41.8257 417.361 44.7661 419.358 48.0533 420.568C92.1695 436.855 138.343 448.855 186.088 456.084C185.013 470.775 186.979 485.529 191.862 499.425C196.745 513.322 204.441 526.063 214.469 536.852C224.497 547.64 236.642 556.246 250.146 562.13C263.649 568.014 278.22 571.052 292.95 571.052C307.68 571.052 322.251 568.014 335.754 562.13C349.258 556.246 361.403 547.64 371.431 536.852C381.459 526.063 389.155 513.322 394.038 499.425C398.921 485.529 400.887 470.775 399.812 456.084C446.9 448.945 493.14 437.036 537.818 420.54C541.1 419.328 544.036 417.331 546.368 414.724C548.701 412.116 550.359 408.977 551.199 405.581C552.039 402.185 552.035 398.634 551.186 395.24C550.338 391.846 548.672 388.711 546.333 386.11C507.29 342.866 485.72 286.65 485.816 228.388V206.959C485.816 155.807 465.496 106.751 429.327 70.5819C393.157 34.4125 344.101 14.0928 292.95 14.0928ZM228.661 464.113C228.661 463.142 228.661 462.199 228.719 461.256C271.453 465.106 314.447 465.106 357.181 461.256L357.239 464.113C357.239 481.163 350.465 497.515 338.409 509.572C326.352 521.628 310 528.402 292.95 528.402C275.9 528.402 259.548 521.628 247.491 509.572C235.435 497.515 228.661 481.163 228.661 464.113Z" fill="#EDDF66"/>
</svg>
